<?xml version="1.0" encoding="UTF-8"?>
<svg id="_圖層_1" data-name="圖層 1" xmlns="http://www.w3.org/2000/svg" viewBox="0 0 800 800">
  <defs>
    <style>
      .cls-1 {
        fill: #778ca4;
      }
    </style>
  </defs>
  <path class="cls-1" d="M335.51,139.16s-61.99,11.5-96.42,70.97-27.75,126.15,29.61,162.65c61.7,39.26,64.83,44.48,102.42,71.2,29.2,20.75,69.65,69.26,66.52,106.83s-20.35,61.83-68.87,80.22c-48.52,18.39-110.25-22.87-120.81-66.63-10.57-43.77-10.28-57.41-10.28-57.41,0,0-6.26,8.61-9,55.96s3.54,62.75,19.57,83.35c15.81,20.32,55.17,29.35,99,26.61,43.83-2.74,90-36.39,99.39-49.3s30.91-49.3,19.96-95.87-57.11-93.46-98.64-133.42c-41.77-40.2-37.04-36-76.26-71.22-45.94-41.25-21.16-102.34-12.04-125.22,17.5-43.89,55.86-58.71,55.86-58.71Z"/>
  <path class="cls-1" d="M457.46,184.16s-.39,34.04,12.91,43.43,23.48,10.17,34.83-2.35,9.78-32.09-7.43-56.74-54.78-37.57-88.04-37.17-70.71,7.06-95.25,33.67-43.03,55.57-30.52,111.91c7.5,33.79,35.65,51.65,59.91,75.13s20.43,15.13,62.72,54.76c41.85,39.22,73.01,61.82,81.88,94.45,11.96,44-1.07,94.16-24.07,125.46-22.99,31.3-51.95,45.78-51.95,45.78,0,0,26.03-5.87,51.95-17.22s54.49-33.26,71.31-77.09,19.96-98.61-4.3-138.52c-24.26-39.91-59.87-71.22-90.39-92.35s-75.91-46.17-97.6-81.78c-19.81-32.51-17.95-41.86-9.74-70.03s44.73-43.45,70.56-43.45,46.17,15.26,53.22,32.09Z"/>
</svg>