<?xml version="1.0" encoding="UTF-8"?>
<svg id="_圖層_1" data-name="圖層 1" xmlns="http://www.w3.org/2000/svg" xmlns:xlink="http://www.w3.org/1999/xlink" viewBox="0 0 956.74 319.35">
  <defs>
    <style>
      .cls-1 {
        fill: url(#_白鑞色環);
      }

      .cls-2 {
        fill: url(#_白鑞色環-6);
      }

      .cls-3 {
        fill: url(#_白鑞色環-5);
      }

      .cls-4 {
        fill: url(#_白鑞色環-2);
      }

      .cls-5 {
        fill: url(#_白鑞色環-7);
      }

      .cls-6 {
        fill: url(#_白鑞色環-4);
      }

      .cls-7 {
        fill: url(#_白鑞色環-3);
      }
    </style>
    <radialGradient id="_白鑞色環" data-name="白鑞色環" cx="315.4" cy="250.48" fx="315.4" fy="250.48" r="15.89" gradientUnits="userSpaceOnUse">
      <stop offset="0" stop-color="#bebfc5"/>
      <stop offset=".33" stop-color="#b9b8b6"/>
      <stop offset=".35" stop-color="#b9b8b5"/>
      <stop offset=".5" stop-color="#aaacac"/>
      <stop offset=".67" stop-color="#929a9f"/>
      <stop offset="1" stop-color="#71797e"/>
    </radialGradient>
    <radialGradient id="_白鑞色環-2" data-name="白鑞色環" cx="373.71" cy="250.48" fx="373.71" fy="250.48" r="12.91" xlink:href="#_白鑞色環"/>
    <radialGradient id="_白鑞色環-3" data-name="白鑞色環" cx="432.63" cy="250.48" fx="432.63" fy="250.48" r="14.68" xlink:href="#_白鑞色環"/>
    <radialGradient id="_白鑞色環-4" data-name="白鑞色環" cx="490.59" cy="250.48" fx="490.59" fy="250.48" r="16.19" xlink:href="#_白鑞色環"/>
    <radialGradient id="_白鑞色環-5" data-name="白鑞色環" cx="557.01" cy="250.48" fx="557.01" fy="250.48" r="14.86" xlink:href="#_白鑞色環"/>
    <radialGradient id="_白鑞色環-6" data-name="白鑞色環" cx="624.31" cy="250.48" fx="624.31" fy="250.48" r="15.49" xlink:href="#_白鑞色環"/>
    <radialGradient id="_白鑞色環-7" data-name="白鑞色環" cx="485.74" cy="131.27" fx="485.74" fy="131.27" r="320.86" xlink:href="#_白鑞色環"/>
  </defs>
  <g>
    <path class="cls-1" d="M315.6,269.26c-2.58,0-4.93-.49-7.06-1.46-2.13-.97-3.96-2.29-5.48-3.94l2.43-2.83c1.32,1.39,2.87,2.5,4.63,3.35,1.77.84,3.61,1.26,5.53,1.26,2.48,0,4.43-.57,5.85-1.71,1.42-1.14,2.13-2.63,2.13-4.48,0-1.36-.28-2.43-.84-3.22-.56-.79-1.3-1.45-2.23-1.98-.93-.53-1.97-1.04-3.12-1.54l-5.25-2.33c-1.12-.46-2.25-1.07-3.39-1.83-1.14-.76-2.09-1.74-2.85-2.95-.76-1.2-1.14-2.68-1.14-4.43,0-1.85.49-3.48,1.46-4.91.97-1.42,2.3-2.53,3.99-3.34,1.68-.81,3.6-1.21,5.75-1.21s4.18.41,6,1.24,3.34,1.9,4.56,3.22l-2.23,2.63c-1.06-1.06-2.27-1.9-3.64-2.53-1.37-.63-2.93-.94-4.68-.94-2.12,0-3.82.5-5.11,1.48-1.29.99-1.93,2.35-1.93,4.07,0,1.22.31,2.23.94,3.02.63.79,1.41,1.43,2.35,1.91.94.48,1.86.93,2.75,1.36l5.25,2.23c1.39.59,2.65,1.3,3.79,2.13s2.04,1.84,2.7,3.05c.66,1.21.99,2.72.99,4.53s-.49,3.6-1.46,5.15-2.37,2.77-4.19,3.67-3.98,1.34-6.49,1.34Z"/>
    <path class="cls-4" d="M371.65,268.62v-36.28h4.11v36.28h-4.11Z"/>
    <path class="cls-7" d="M422.55,268.62v-36.28h4.11v32.81h16.06v3.47h-20.17Z"/>
    <path class="cls-6" d="M488.27,268.62l-11.65-36.28h4.31l6.05,20.03c.66,2.15,1.25,4.15,1.78,6s1.14,3.86,1.84,6.05h.2c.69-2.18,1.31-4.19,1.84-6.05s1.12-3.85,1.78-6l6-20.03h4.16l-11.6,36.28h-4.71Z"/>
    <path class="cls-3" d="M546.4,268.62v-36.28h20.67v3.47h-16.55v11.94h13.92v3.47h-13.92v13.93h17.1v3.47h-21.21Z"/>
    <path class="cls-2" d="M612.02,268.62v-36.28h11.1c2.48,0,4.66.32,6.54.97s3.36,1.7,4.41,3.17c1.06,1.47,1.59,3.43,1.59,5.88s-.53,4.35-1.59,5.92-2.53,2.74-4.41,3.52c-1.88.78-4.06,1.17-6.54,1.17h-6.99v15.66h-4.11ZM616.13,249.64h6.34c2.94,0,5.19-.6,6.74-1.81,1.55-1.21,2.33-3.03,2.33-5.47s-.77-4.17-2.33-5.15c-1.56-.99-3.8-1.49-6.74-1.49h-6.34v13.93ZM631.99,268.62l-9.72-16.8,3.37-1.98,10.95,18.78h-4.61Z"/>
  </g>
  <path class="cls-5" d="M43.3,175.16c4.82-3.86,10.3-6.84,15.96-9.32,5.68-2.44,11.6-4.36,17.66-5.64,12.12-2.64,24.7-2.95,37.01-1.44,6.17.72,12.26,1.98,18.26,3.56,3.01.75,5.97,1.71,8.93,2.63,1.48.47,2.93,1.03,4.39,1.54,1.46.52,2.93,1.03,4.36,1.64,2.89,1.15,5.76,2.33,8.58,3.51,2.85,1.16,5.71,2.28,8.59,3.35,5.76,2.13,11.6,4.06,17.5,5.73,11.8,3.35,23.88,5.73,36.07,6.65,12.17.93,24.46.38,36.35-2.1,11.88-2.5,23.32-6.98,33.51-13.5,5.1-3.24,9.9-6.96,14.33-11.07,4.43-4.12,8.5-8.62,12.21-13.4l4.6-5.93-.58,7.51c-.52,6.78-1.01,13.56-1.25,20.3-.11,3.36-.17,6.73.01,10,.09,1.63.25,3.24.55,4.72.29,1.46.81,2.84,1.4,3.43.29.3.55.44.97.55.43.1,1.02.12,1.69.04,1.33-.15,2.92-.61,4.41-1.12,3.02-1.06,6.07-2.47,9.05-3.96,5.95-3.02,11.71-6.49,17.1-10.39,5.35-3.91,10.46-8.27,14.34-13.34,1.92-2.53,3.5-5.27,4.27-8.07.2-.7.33-1.4.41-2.09.04-.33.07-.71.1-1.12.02-.4.05-.8.06-1.19.06-1.59,0-3.17-.15-4.72-.16-1.55-.45-3.06-.88-4.48-.43-1.41-1.03-2.74-1.77-3.74-.36-.5-.77-.89-1.12-1.13-.36-.24-.59-.28-.7-.27-.11,0-.27.04-.57.29-.29.25-.63.68-.93,1.21-.3.53-.57,1.17-.79,1.84-.26.81-.32,1.04-.31,1.55,0,.94.44,2.16,1.16,3.39,1.46,2.49,3.72,4.96,6,7.36,4.63,4.83,9.7,9.59,14.09,15.19,2.2,2.8,4.23,5.82,5.84,9.16,1.6,3.33,2.75,7.03,3.02,10.88.08.96.08,1.93.06,2.88-.05.89-.07,1.78-.15,2.67-.13,1.78-.33,3.56-.62,5.35-.58,3.56-1.5,7.12-3.02,10.57-1.54,3.41-3.69,6.8-7.02,9.33-1.65,1.26-3.65,2.22-5.78,2.71-2.14.5-4.39.43-6.46-.05-2.08-.48-3.97-1.35-5.66-2.41-.97-.62-1.92-1.41-2.69-2.4-.78-.98-1.37-2.15-1.72-3.34-.69-2.42-.43-4.78.13-6.79.58-2.02,1.45-3.81,2.44-5.44,2-3.27,4.45-5.99,7.02-8.5,2.59-2.49,5.34-4.73,8.18-6.82,5.68-4.16,11.69-7.72,17.85-10.93l4.6-2.34c1.48-.75,2.94-1.51,4.39-2.34,2.9-1.6,5.74-3.36,8.53-5.17,11.15-7.32,21.44-16.05,30.79-25.64,4.68-4.79,9.09-9.85,13.23-15.1,4.13-5.26,8-10.72,11.42-16.43,3.43-5.7,6.49-11.61,8.87-17.74,1.22-3.05,2.23-6.18,3.06-9.32l.59-2.36c.15-.77.33-1.53.43-2.29.25-1.53.38-3.06.38-4.56.02-3-.49-5.96-1.67-8.46-1.16-2.49-3.03-4.5-5.17-5.34-.53-.21-1.07-.34-1.61-.42-.54-.05-1.08-.06-1.62.02-1.08.18-2.06.57-3.12,1.36-2.14,1.56-4.17,4.07-5.94,6.7-3.56,5.33-6.41,11.39-8.92,17.55-2.51,6.17-4.65,12.54-6.51,18.98-3.69,12.89-6.33,26.14-7.57,39.45-.61,6.65-.84,13.33-.51,19.93.18,3.3.5,6.57,1.02,9.79.26,1.58.59,3.27.91,4.92l1,4.96c1.4,6.56,2.93,13.16,5.28,19.11,1.17,2.92,2.66,5.75,4.45,7.41.9.82,1.76,1.25,2.72,1.4.96.15,2.15,0,3.42-.45,2.57-.89,5.26-2.68,7.8-4.64,1.28-.99,2.54-2.04,3.78-3.13,1.2-1.05,2.36-2.17,3.5-3.34,4.54-4.7,8.65-10.03,12.66-15.45,4.01-5.43,7.88-11.02,11.91-16.58,2.03-2.78,4.08-5.56,6.37-8.29,1.16-1.36,2.36-2.71,3.8-4.03.73-.66,1.51-1.31,2.53-1.94.52-.31,1.1-.61,1.83-.85.74-.23,1.69-.42,2.81-.23,1.12.18,2.19.82,2.84,1.49.68.68,1.05,1.34,1.34,1.95.56,1.21.8,2.25.99,3.25.18,1,.29,1.95.36,2.88l.15,2.63c.18,3.46.27,6.91.3,10.35l.05,10.22c.05,3.35.11,6.7.59,9.71.25,1.48.61,2.89,1.17,3.93.55,1.06,1.23,1.73,2.18,2.24.51.22,1.04.46,1.69.58.35.09.56.12.81.14.25.02.53.02.81,0,1.14-.07,2.48-.51,3.8-1.11,2.66-1.25,5.26-3.18,7.71-5.28,2.45-2.12,4.77-4.47,6.97-6.92,4.4-4.93,8.41-10.3,11.81-15.94,1.67-2.81,3.24-5.75,4.19-8.57.23-.71.39-1.34.47-1.94.09-.63.09-1.24.02-1.79-.14-1.11-.59-1.99-1.25-2.53-.64-.56-1.53-.7-1.95-.53-.21.08-.34.17-.48.38-.14.21-.27.59-.32,1.09-.04.51,0,1.11.13,1.76.12.66.32,1.27.6,2.07.52,1.52,1.12,3.02,1.79,4.47,2.67,5.8,6.63,11.01,11.91,14.15,2.61,1.6,5.54,2.6,8.58,3.14,3.05.53,6.23.48,9.39.08,6.36-.81,12.56-3.18,18.54-6.06,5.99-2.91,11.7-6.35,16.91-10.43,2.63-2.04,5.04-4.23,7.66-6.56.69-.59,1.34-1.18,2.3-1.8.5-.3,1.05-.66,2.06-.86.23-.05.56-.06.84-.06.32.03.64.06.94.17.64.19,1.11.54,1.49.87.68.67.98,1.24,1.23,1.75.25.51.44.99.6,1.44.32.91.57,1.77.8,2.63.9,3.4,1.63,6.7,2.42,10.01.78,3.31,1.57,6.62,2.4,9.9.83,3.27,1.7,6.54,2.75,9.65.53,1.55,1.12,3.06,1.82,4.39.69,1.33,1.57,2.45,2.34,2.8.38.19.78.25,1.31.21.53-.06,1.16-.24,1.81-.52,1.31-.56,2.67-1.43,3.99-2.37,2.66-1.9,5.23-4.08,7.84-6.28,5.23-4.43,10.74-8.67,16.59-12.38,5.85-3.72,12.04-6.89,18.47-9.5,6.44-2.56,13.1-4.55,19.87-5.94,13.57-2.72,27.5-3.09,41.17-1.76,6.84.67,13.63,1.75,20.34,3.12,6.72,1.37,13.33,3.26,19.89,4.87,13.19,3.18,26.66,5.25,40.22,5.8,13.55.54,27.21-.48,40.44-3.61,6.6-1.59,13.09-3.71,19.24-6.6,3.07-1.45,6.06-3.09,8.87-5,1.4-.96,2.76-1.99,4.02-3.13,1.25-1.14,2.45-2.38,3.31-3.86-.82,1.5-2,2.77-3.23,3.94-1.24,1.17-2.58,2.24-3.97,3.23-2.78,1.98-5.75,3.69-8.81,5.21-6.13,3.03-12.61,5.31-19.22,7.05-13.25,3.47-27.02,4.64-40.69,4.33-13.69-.34-27.32-2.21-40.67-5.21-6.7-1.54-13.22-3.3-19.89-4.54-6.66-1.25-13.36-2.2-20.1-2.76-13.46-1.09-27.07-.51-40.2,2.34-6.56,1.43-12.98,3.43-19.18,5.98-6.18,2.59-12.12,5.72-17.74,9.38-5.62,3.65-10.9,7.8-16.02,12.24-2.57,2.22-5.18,4.5-8.04,6.59-1.45,1.04-2.95,2.06-4.76,2.87-.91.4-1.92.75-3.08.89-1.16.14-2.52-.01-3.67-.58-1.16-.55-2.04-1.36-2.73-2.17-.69-.82-1.2-1.66-1.66-2.5-.9-1.68-1.56-3.35-2.15-5.02-1.17-3.33-2.09-6.66-2.97-9.97-.88-3.32-1.71-6.63-2.53-9.95-.83-3.31-1.59-6.66-2.46-9.84-.22-.79-.45-1.56-.7-2.26-.12-.35-.26-.66-.38-.92-.12-.26-.27-.42-.2-.35.05.06.17.14.4.23.22.07.44.06.52.04.17-.04-.04.02-.26.17-.47.3-1.1.84-1.7,1.37-2.45,2.22-5.07,4.64-7.81,6.8-5.49,4.37-11.49,8.05-17.73,11.14-6.24,3.07-12.92,5.73-20.11,6.71-3.58.49-7.3.58-10.98-.02-3.67-.61-7.31-1.82-10.53-3.76-3.25-1.9-6.07-4.43-8.43-7.25-2.35-2.84-4.27-5.97-5.81-9.23-.77-1.63-1.45-3.3-2.05-5-.29-.8-.63-1.81-.83-2.83-.21-1.03-.33-2.13-.25-3.33.09-1.19.4-2.51,1.17-3.74.75-1.24,2.02-2.28,3.42-2.77,2.84-.99,5.67-.12,7.63,1.47,2.01,1.62,3.11,4.04,3.39,6.3.15,1.14.13,2.25,0,3.3-.14,1.09-.4,2.11-.7,3.02-1.22,3.65-2.91,6.74-4.69,9.8-3.61,6.05-7.77,11.66-12.41,16.93-2.33,2.62-4.8,5.15-7.49,7.51-2.71,2.34-5.59,4.57-9.1,6.25-1.77.82-3.7,1.53-5.97,1.71-.57.04-1.15.05-1.74,0-.59-.04-1.23-.15-1.71-.27-1.03-.2-2.09-.6-3.13-1.08-1.03-.54-2.03-1.23-2.88-2.09-.82-.86-1.53-1.82-2.03-2.81-1.04-1.98-1.49-3.93-1.82-5.8-.61-3.73-.66-7.22-.73-10.67l-.1-10.22c-.05-3.38-.15-6.74-.35-10.09l-.16-2.48c-.06-.77-.15-1.51-.28-2.19-.12-.67-.31-1.3-.47-1.63-.07-.16-.15-.24-.08-.16.05.07.35.27.62.31.28.04.36,0,.29.02-.07.03-.26.11-.47.24-.44.27-.98.69-1.5,1.18-1.07.99-2.14,2.18-3.18,3.43-2.08,2.5-4.07,5.21-6.04,7.95-3.94,5.49-7.8,11.13-11.86,16.68-4.07,5.55-8.3,11.05-13.21,16.17-1.23,1.28-2.52,2.53-3.88,3.72-1.32,1.16-2.68,2.3-4.09,3.4-2.85,2.17-5.85,4.31-9.73,5.7-1.93.67-4.21,1.11-6.63.75-2.42-.34-4.69-1.59-6.29-3.09-1.63-1.5-2.79-3.17-3.76-4.83-.96-1.67-1.74-3.35-2.42-5.04-1.35-3.37-2.37-6.75-3.27-10.12-.9-3.37-1.67-6.75-2.39-10.12l-1.03-5.06c-.33-1.69-.65-3.34-.96-5.13-.57-3.51-.92-7.03-1.11-10.53-.36-7.01-.13-14,.5-20.91,1.26-13.84,3.96-27.44,7.74-40.76,1.92-6.65,4.11-13.23,6.72-19.69,2.64-6.45,5.61-12.8,9.62-18.81,2.05-2.98,4.28-5.95,7.65-8.44,1.67-1.25,3.91-2.27,6.19-2.59,1.15-.17,2.33-.16,3.48-.03,1.14.16,2.27.45,3.32.87,2.1.85,3.93,2.16,5.39,3.7,1.47,1.55,2.61,3.31,3.48,5.14,1.73,3.69,2.33,7.63,2.31,11.42,0,1.9-.17,3.78-.47,5.61-.13.93-.34,1.82-.52,2.73l-.65,2.59c-.92,3.44-2.01,6.82-3.33,10.09-2.56,6.57-5.81,12.8-9.42,18.77-3.6,5.98-7.63,11.66-11.93,17.11-4.3,5.44-8.88,10.66-13.73,15.61-9.69,9.9-20.32,18.91-31.97,26.53-2.92,1.9-5.9,3.71-8.96,5.39-1.52.86-3.08,1.66-4.65,2.44l-4.53,2.27c-5.94,3.06-11.71,6.44-17.05,10.31-2.66,1.94-5.21,4-7.55,6.22-2.32,2.22-4.45,4.62-6.02,7.17-.79,1.27-1.41,2.58-1.77,3.84-.36,1.25-.42,2.42-.16,3.3.25.87.77,1.55,1.71,2.16,1.19.76,2.44,1.32,3.69,1.61,2.49.61,4.94.06,7.07-1.53,2.13-1.59,3.85-4.09,5.1-6.86,1.25-2.79,2.08-5.87,2.61-9.03.26-1.58.45-3.19.58-4.8.07-.81.09-1.62.15-2.43.02-.75.02-1.48-.04-2.22-.38-5.95-3.51-11.67-7.5-16.77-4-5.16-8.86-9.8-13.64-14.82-2.37-2.56-4.79-5.13-6.78-8.54-.95-1.71-1.85-3.75-1.88-6.25,0-.62.06-1.25.19-1.86.07-.29.15-.66.23-.87.07-.23.14-.47.23-.7.33-.94.71-1.88,1.26-2.83.54-.94,1.23-1.9,2.25-2.76.99-.85,2.47-1.57,4.07-1.6,1.6-.05,3.04.55,4.08,1.27,1.05.73,1.84,1.6,2.48,2.47,1.27,1.76,2.03,3.61,2.59,5.45.55,1.85.88,3.7,1.06,5.54.18,1.84.22,3.68.14,5.49-.02.45-.05.91-.08,1.36-.03.44-.07.9-.14,1.42-.13.99-.32,1.97-.6,2.91-1.09,3.77-3.06,7-5.26,9.88-4.47,5.73-9.93,10.24-15.58,14.32-5.69,4.04-11.67,7.58-17.9,10.68-3.13,1.53-6.29,2.98-9.7,4.15-1.74.57-3.44,1.08-5.5,1.32-1.02.1-2.16.12-3.39-.18-1.23-.29-2.52-1.03-3.38-1.98-.89-.95-1.41-1.99-1.8-2.97-.38-.98-.62-1.94-.81-2.87-.36-1.86-.51-3.66-.6-5.43-.16-3.54-.07-7,.08-10.44.32-6.88.89-13.69,1.49-20.49l4.03,1.58c-3.91,4.92-8.19,9.56-12.85,13.8-4.67,4.23-9.71,8.04-15.06,11.36-10.7,6.67-22.66,11.2-34.96,13.63-6.16,1.21-12.4,1.92-18.64,2.18-6.25.23-12.5.06-18.71-.53-12.42-1.14-24.65-3.75-36.53-7.32-5.94-1.79-11.81-3.83-17.59-6.07-2.89-1.12-5.76-2.29-8.61-3.51-2.85-1.25-5.67-2.45-8.5-3.63-1.41-.62-2.84-1.15-4.28-1.69-1.44-.53-2.86-1.1-4.32-1.59-2.91-.96-5.82-1.96-8.78-2.74-5.9-1.66-11.91-3-17.99-3.8-12.15-1.68-24.59-1.56-36.66.78-6.04,1.15-11.96,2.93-17.67,5.24-5.68,2.35-11.21,5.2-16.11,8.96Z"/>
</svg>